<mxfile host="app.diagrams.net" modified="2024-06-19T06:15:08.286Z" agent="Mozilla/5.0 (Windows NT 10.0; Win64; x64) AppleWebKit/537.36 (KHTML, like Gecko) Chrome/125.0.0.0 Safari/537.36 Edg/125.0.0.0" etag="3xSOb6Hhpps-Erqq6Fgc" version="24.5.3" type="device">
  <diagram name="第 1 页" id="V8AqVfgaQUgs5xwyVJRH">
    <mxGraphModel dx="560" dy="369" grid="1" gridSize="10" guides="1" tooltips="1" connect="1" arrows="1" fold="1" page="1" pageScale="1" pageWidth="827" pageHeight="1169" math="0" shadow="0">
      <root>
        <mxCell id="0" />
        <mxCell id="1" parent="0" />
        <mxCell id="7XzX3s3E9hx0LNE9UTRw-2" value="&lt;font style=&quot;font-size: 14px;&quot;&gt;認識與分類人工智能&lt;/font&gt;" style="rounded=1;whiteSpace=wrap;html=1;verticalAlign=top;" vertex="1" parent="1">
          <mxGeometry x="260" y="720" width="390" height="150" as="geometry" />
        </mxCell>
      </root>
    </mxGraphModel>
  </diagram>
</mxfile>
